<svg width="1051" height="1051" viewBox="0 0 1051 1051" fill="none" xmlns="http://www.w3.org/2000/svg">
<path d="M526.696 0L524.303 0C234.738 0 0 234.739 0 524.303L0 526.697C0 816.261 234.738 1051 524.303 1051H526.696C816.261 1051 1051 816.261 1051 526.697V524.303C1051 234.739 816.261 0 526.696 0Z" fill="black"/>
<path d="M528.031 897.788C527.246 898.128 526.559 898.659 526.032 899.334L526.651 898.939C527.073 898.551 527.668 898.094 528.031 897.788Z" fill="black"/>
<path d="M556.964 492.359C525.765 505.752 490.358 520.938 444.471 520.938C425.275 520.9 406.172 518.259 387.682 513.087L419.418 839.835C420.542 853.489 426.746 866.224 436.799 875.506C446.852 884.788 460.018 889.936 473.683 889.936C473.683 889.936 518.683 892.279 533.699 892.279C549.859 892.279 598.317 889.936 598.317 889.936C611.98 889.936 625.144 884.781 635.194 875.499C645.245 866.217 651.448 853.489 652.571 839.835L686.562 478.766C671.372 473.564 656.041 470.107 638.759 470.107C608.869 470.096 584.785 480.419 556.964 492.359Z" fill="white"/>
<path d="M833.324 322.799L828.545 298.626C824.256 276.936 814.523 256.442 792.321 248.603C785.205 246.095 777.13 245.018 771.673 239.827C766.217 234.636 764.604 226.574 763.342 219.098C761.005 205.377 758.808 191.644 756.412 177.946C754.345 166.17 752.709 152.941 747.322 142.137C740.311 127.631 725.763 119.147 711.296 113.535C703.884 110.76 696.319 108.413 688.639 106.504C652.497 96.9426 614.497 93.4273 577.315 91.4236C532.687 88.9541 487.939 89.6982 443.416 93.6499C410.277 96.6731 375.373 100.329 343.882 111.824C332.373 116.031 320.512 121.081 311.76 129.998C301.021 140.954 297.516 157.897 305.356 171.56C310.93 181.262 320.372 188.117 330.386 192.652C343.43 198.495 357.052 202.941 371.027 205.916C409.938 214.54 450.24 217.926 489.992 219.368C534.053 221.151 578.184 219.706 622.034 215.044C632.878 213.849 643.702 212.415 654.507 210.744C667.232 208.787 675.4 192.101 671.649 180.477C667.162 166.58 655.103 161.19 641.467 163.288C639.457 163.604 637.459 163.897 635.448 164.189L634 164.401C629.38 164.987 624.761 165.533 620.141 166.041C610.598 167.072 601.032 167.916 591.443 168.572C569.965 170.072 548.43 170.763 526.906 170.799C505.756 170.799 484.594 170.201 463.491 168.807C453.862 168.174 444.257 167.369 434.675 166.392C430.317 165.936 425.97 165.455 421.624 164.916L417.486 164.389L416.587 164.26L412.299 163.639C403.535 162.315 394.771 160.792 386.101 158.952C385.226 158.757 384.443 158.27 383.882 157.568C383.321 156.867 383.015 155.996 383.015 155.097C383.015 154.198 383.321 153.326 383.882 152.626C384.443 151.925 385.226 151.436 386.101 151.242H386.264C393.778 149.637 401.349 148.266 408.945 147.07C411.477 146.672 414.016 146.281 416.563 145.899H416.633C421.389 145.582 426.169 144.727 430.901 144.164C472.075 139.87 513.494 138.406 554.869 139.782C574.955 140.368 595.03 141.551 615.023 143.59C619.323 144.036 623.6 144.504 627.876 145.031C629.512 145.231 631.16 145.465 632.808 145.664L636.126 146.145C645.802 147.59 655.426 149.344 665 151.406C679.186 154.499 697.403 155.507 703.713 171.091C705.723 176.036 706.634 181.532 707.744 186.722L709.158 193.343C709.195 193.462 709.222 193.583 709.24 193.706C712.582 209.329 715.928 224.953 719.277 240.576C719.523 241.731 719.529 242.923 719.294 244.08C719.06 245.237 718.591 246.332 717.915 247.299C717.24 248.265 716.373 249.081 715.369 249.697C714.365 250.313 713.245 250.714 712.079 250.877H711.986L709.941 251.158L707.92 251.427C701.516 252.263 695.105 253.044 688.686 253.771C676.042 255.216 663.38 256.466 650.698 257.52C625.497 259.621 600.245 261 574.943 261.657C562.051 262 549.162 262.161 536.277 262.137C484.991 262.097 433.75 259.107 382.806 253.184C377.29 252.529 371.775 251.825 366.259 251.111C370.536 251.662 363.151 250.689 361.655 250.478C358.15 249.986 354.644 249.474 351.139 248.943C339.372 247.173 327.675 244.994 315.931 243.084C301.734 240.741 288.156 241.913 275.314 248.943C264.773 254.728 256.241 263.598 250.857 274.37C245.319 285.853 243.671 298.356 241.194 310.695C238.717 323.033 234.86 336.309 236.321 348.976C239.464 376.313 258.523 398.53 285.936 403.498C311.725 408.185 337.654 411.981 363.653 415.215C465.785 427.759 568.964 429.259 671.416 419.692C679.758 418.91 688.09 418.059 696.41 417.137C699.009 416.851 701.638 417.151 704.106 418.016C706.574 418.88 708.818 420.288 710.673 422.135C712.528 423.982 713.948 426.222 714.828 428.69C715.709 431.158 716.027 433.793 715.76 436.401L713.166 461.687C707.939 512.783 702.712 563.876 697.485 614.965C692.032 668.616 686.543 722.263 681.02 775.903C679.462 791.014 677.904 806.119 676.347 821.216C674.851 836.089 674.641 851.425 671.824 866.121C667.384 889.228 651.784 903.42 629.022 908.609C608.168 913.369 586.864 915.868 565.478 916.059C541.769 916.188 518.072 915.133 494.363 915.262C469.053 915.405 438.053 913.063 418.515 894.172C401.349 877.583 398.977 851.602 396.64 829.136C393.525 799.397 390.436 769.664 387.374 739.933L370.197 574.609L359.085 467.64C358.897 465.871 358.711 464.125 358.535 462.343C357.203 449.583 348.194 437.092 333.996 437.737C321.844 438.275 308.033 448.634 309.458 462.343L317.696 541.648L334.733 705.694C339.586 752.291 344.428 798.893 349.257 845.508C350.193 854.435 351.069 863.391 352.05 872.318C357.39 921.112 394.549 947.406 440.565 954.808C467.44 959.146 494.97 960.038 522.243 960.481C557.205 961.046 592.518 962.394 626.907 956.041C677.866 946.663 716.099 912.545 721.556 859.618C723.114 844.336 724.672 829.055 726.23 813.766C731.41 763.208 736.583 712.647 741.748 662.081L758.645 496.864L766.392 421.145C766.778 417.39 768.359 413.859 770.901 411.076C773.443 408.293 776.812 406.404 780.507 405.689C795.078 402.842 809.008 397.979 819.372 386.859C835.871 369.154 839.155 346.07 833.324 322.799ZM285.188 339.133C285.41 339.028 285.001 340.937 284.826 341.828C284.791 340.48 284.861 339.285 285.188 339.133ZM286.602 350.101C286.719 350.019 287.069 350.488 287.432 351.05C286.882 350.534 286.532 350.148 286.59 350.101H286.602ZM287.993 351.94C288.495 352.796 288.764 353.335 287.993 351.94V351.94ZM290.785 354.213H290.855C290.855 354.296 290.984 354.378 291.031 354.46C290.953 354.369 290.867 354.287 290.774 354.213H290.785ZM779.83 350.815C774.595 355.807 766.707 358.127 758.913 359.288C671.509 372.294 582.831 378.879 494.468 375.973C431.228 373.806 368.655 366.763 306.046 357.893C299.911 357.026 293.262 355.901 289.044 351.366C281.098 342.812 285.001 325.588 287.069 315.253C288.962 305.785 292.585 293.165 303.814 291.818C321.342 289.756 341.697 297.172 359.038 299.809C379.915 303.004 400.871 305.562 421.903 307.484C511.668 315.687 602.941 314.409 692.308 302.411C708.597 300.215 724.828 297.665 741 294.759C755.408 292.169 771.381 287.307 780.087 302.27C786.058 312.464 786.852 326.103 785.929 337.622C785.645 342.64 783.458 347.36 779.818 350.815H779.83Z" fill="white"/>
</svg>
