<svg width="1051" height="1051" viewBox="0 0 1051 1051" fill="none" xmlns="http://www.w3.org/2000/svg">
<path d="M526.696 0L524.303 0C234.738 0 0 234.739 0 524.303L0 526.697C0 816.261 234.738 1051 524.303 1051H526.696C816.261 1051 1051 816.261 1051 526.697V524.303C1051 234.739 816.261 0 526.696 0Z" fill="black"/>
<path d="M788.499 284.226C740.116 262.023 688.271 245.674 634.033 236.321C633.039 236.137 632.044 236.579 631.565 237.5C624.9 249.356 617.499 264.858 612.344 277.009C554.019 268.282 495.988 268.282 438.841 277.009C433.649 264.563 425.99 249.356 419.289 237.5C418.773 236.616 417.779 236.174 416.822 236.321C362.621 245.674 310.739 262.023 262.355 284.226C261.95 284.41 261.582 284.705 261.324 285.11C162.937 432.102 135.983 575.485 149.202 717.101C149.275 717.801 149.644 718.464 150.196 718.869C215.112 766.553 278.005 795.495 339.718 814.679C340.712 814.973 341.743 814.605 342.369 813.795C356.95 793.875 369.985 772.849 381.142 750.72C381.805 749.431 381.142 747.884 379.816 747.369C359.159 739.526 339.533 729.989 320.607 719.163C319.097 718.28 318.987 716.144 320.349 715.113C324.326 712.13 328.303 709.037 332.095 705.908C332.795 705.318 333.752 705.208 334.562 705.576C458.762 762.282 593.234 762.282 715.961 705.576C716.771 705.171 717.728 705.319 718.428 705.871C722.22 709.001 726.197 712.13 730.211 715.113C731.573 716.144 731.5 718.28 729.99 719.163C711.101 730.21 691.438 739.563 670.744 747.369C669.382 747.884 668.792 749.431 669.455 750.756C680.87 772.813 693.868 793.838 708.191 813.795C708.78 814.642 709.848 815.01 710.842 814.716C772.85 795.532 835.742 766.59 900.658 718.906C901.21 718.501 901.579 717.838 901.652 717.175C917.486 553.466 875.141 411.261 789.457 285.184C789.236 284.779 788.904 284.447 788.463 284.263L788.499 284.226ZM399.626 630.865C362.215 630.865 331.433 596.547 331.433 554.387C331.433 512.226 361.663 477.908 399.626 477.908C437.589 477.908 468.445 512.557 467.819 554.387C467.819 596.547 437.589 630.865 399.626 630.865ZM651.817 630.865C614.406 630.865 583.624 596.547 583.624 554.387C583.624 512.226 613.854 477.908 651.817 477.908C689.78 477.908 720.637 512.557 720.011 554.387C720.011 596.547 690.112 630.865 651.817 630.865Z" fill="white"/>
</svg>
