<svg width="56" height="56" viewBox="0 0 56 56" fill="none" xmlns="http://www.w3.org/2000/svg">
<circle cx="28" cy="28" r="28" fill="white" fill-opacity="0.15"/>
<path d="M28 12C19.1634 12 12 19.2772 12 28.2539C12 35.8343 17.1083 42.2023 24.0185 44C24.0139 42.1216 24.0078 39.8176 24.0043 39.0997C19.387 40.1198 18.4128 37.1104 18.4128 37.1104C17.658 35.1616 16.57 34.6432 16.57 34.6432C15.0638 33.5968 16.6834 33.6181 16.6834 33.6181C18.3499 33.7369 19.2277 35.3557 19.2277 35.3557C20.7079 37.9332 23.1104 37.1879 24.0576 36.7573C24.2066 35.6679 24.6364 34.9237 25.1115 34.5028C21.4251 34.0764 17.5495 32.6308 17.5495 26.1703C17.5495 24.3296 18.198 22.8256 19.2597 21.6448C19.0873 21.2199 18.5191 19.5051 19.4204 17.1826C19.4204 17.1826 20.8142 16.7296 23.9858 18.9109C25.3099 18.5372 26.7296 18.3499 28.1401 18.3435C29.5506 18.3499 30.9714 18.5372 32.298 18.9109C35.466 16.7296 36.8576 17.1826 36.8576 17.1826C37.7611 19.5051 37.1929 21.2199 37.0204 21.6448C38.0846 22.8256 38.7285 24.3296 38.7285 26.1703C38.7285 32.6464 34.8459 34.0718 31.1499 34.4896C31.7451 35.013 32.2756 36.0388 32.2756 37.6117C32.2756 38.8608 32.2699 41.7365 32.2645 43.9193C39.0297 42.0228 44 35.7298 44 28.2539C44 19.2772 36.8366 12 28 12Z" fill="white"/>
</svg>