<svg width="100" height="100" viewBox="0 0 56 56" fill="none" xmlns="http://www.w3.org/2000/svg">
<circle cx="28" cy="28" r="28" fill="white" fill-opacity="0.15"/>
<path d="M34.3598 12H21.6405C16.3246 12 12 16.3246 12 21.6405V34.3598C12 39.6754 16.3246 44 21.6405 44H34.3598C39.6754 44 44 39.6754 44 34.3598V21.6405C44 16.3246 39.6754 12 34.3598 12ZM28 36.7111C23.1968 36.7111 19.2889 32.8036 19.2889 28C19.2889 23.1968 23.1968 19.2889 28 19.2889C32.8036 19.2889 36.7111 23.1968 36.7111 28C36.7111 32.8036 32.8036 36.7111 28 36.7111ZM37.0756 19.8354C36.2901 19.8354 35.6533 19.1986 35.6533 18.4132C35.6533 17.6277 36.2901 16.9909 37.0756 16.9909C37.861 16.9909 38.4978 17.6277 38.4978 18.4132C38.4978 19.1986 37.861 19.8354 37.0756 19.8354Z" fill="white"/>
<path d="M28.0002 21.0669C24.1773 21.0669 21.0669 24.1773 21.0669 28.0002C21.0669 31.8235 24.1773 34.9336 28.0002 34.9336C31.8235 34.9336 34.9336 31.8235 34.9336 28.0002C34.9336 24.1773 31.8235 21.0669 28.0002 21.0669ZM28.0002 24.978C26.3337 24.978 24.978 26.3337 24.978 28.0002C24.978 28.4912 24.5801 28.8891 24.0891 28.8891C23.5981 28.8891 23.2002 28.4912 23.2002 28.0002C23.2002 25.3535 25.3535 23.2002 28.0002 23.2002C28.4912 23.2002 28.8891 23.5981 28.8891 24.0891C28.8891 24.5801 28.4912 24.978 28.0002 24.978Z" fill="white"/>
</svg>