<svg width="56" height="56" viewBox="0 0 56 56" fill="none" xmlns="http://www.w3.org/2000/svg">
<circle cx="28" cy="28" r="28" fill="white" fill-opacity="0.15"/>
<path d="M41.6352 12H14.3648C13.0588 12 12 13.0265 12 14.2923V41.7077C12 42.9739 13.0588 44 14.3648 44H41.6352C42.9412 44 44 42.9739 44 41.7077V14.2923C44 13.0265 42.9412 12 41.6352 12ZM21.7003 38.7872H16.8668V24.3374H21.7003V38.7872ZM19.2836 22.3648H19.2523C17.6302 22.3648 16.5813 21.2551 16.5813 19.8684C16.5813 18.4505 17.6622 17.3717 19.3156 17.3717C20.9692 17.3717 21.9868 18.4505 22.0181 19.8684C22.0181 21.2551 20.9689 22.3648 19.2836 22.3648ZM39.1285 38.7872H34.2958V31.0571C34.2958 29.1147 33.5961 27.7895 31.8471 27.7895C30.5116 27.7895 29.7166 28.683 29.3671 29.546C29.2395 29.8546 29.2082 30.2859 29.2082 30.7179V38.7872H24.3748C24.3748 38.7872 24.438 25.6935 24.3748 24.3374H29.2082V26.384C29.8503 25.3995 30.9988 23.9986 33.5641 23.9986C36.7442 23.9986 39.1285 26.0636 39.1285 30.502V38.7872Z" fill="white"/>
</svg>